<?xml version="1.0" encoding="iso-8859-1"?>
<!-- Generator: Adobe Illustrator 19.0.0, SVG Export Plug-In . SVG Version: 6.00 Build 0)  -->
<svg version="1.1" id="Capa_1" xmlns="http://www.w3.org/2000/svg" xmlns:xlink="http://www.w3.org/1999/xlink" x="0px" y="0px"
	 viewBox="0 0 416 416" style="enable-background:new 0 0 416 416;" xml:space="preserve">
<path style="fill:#FFDC69;" d="M320,8H120c-17.672,0-32,14.328-32,32v8H40C22.328,48,8,62.328,8,80v40c0,17.672,14.328,32,32,32h48
	v56v104v32c0,17.68,14.32,32,32,32h24h24c0,17.672,14.328,32,32,32h96c17.672,0,32-14.328,32-32h24h24c17.672,0,32-14.328,32-32V96
	v-8L328,8H320z M280,80c0-17.672-14.328-32-32-32C265.68,48,280,62.32,280,80z M280,120c0,17.68-14.32,32-32,32
	C265.672,152,280,137.672,280,120z"/>
<path style="fill:#FFB855;" d="M328,8h-8v56c0,17.672,14.328,32,32,32h56v-8L328,8z"/>
<path style="fill:#FF8C5A;" d="M280,80v40c0,17.672-14.328,32-32,32H40c-17.672,0-32-14.328-32-32V80c0-17.672,14.328-32,32-32h208
	C265.672,48,280,62.328,280,80z"/>
<path style="fill:#FEEC9F;" d="M296,408h-96c-17.672,0-32-14.328-32-32v-80c0-17.672,14.328-32,32-32h96c17.672,0,32,14.328,32,32
	v80C328,393.672,313.672,408,296,408z"/>
<path d="M84.36,127.12l4-21.48c0.832-4.16,1.416-8.656,2-12.656h0.336c0.504,4,1.168,8.496,2,12.656l4.16,21.48h18.152L124,73.008
	h-13.656l-3,23.648c-0.584,5.496-1.248,11.24-1.832,16.984h-0.336c-1-5.744-2-11.568-3-16.984l-5.16-23.648H85.024l-5.16,23.648
	c-1,5.576-2,11.32-3,16.984h-0.336c-0.584-5.664-1.248-11.32-1.832-16.984l-3-23.648H57.04l9.496,54.112H84.36z"/>
<path d="M138.6,127.12l2.664-11.488h15.152l2.664,11.488h15.152l-16.488-54.112h-17.32l-16.488,54.112H138.6z M144.76,100.816
	c1.336-5.16,2.664-11.656,3.832-17.152h0.336c1.336,5.408,2.664,11.992,4,17.152l0.912,3.744h-10L144.76,100.816z"/>
<path d="M204.168,127.12l15.984-54.112h-14.656L200,96.656c-1.416,5.744-2.496,11.32-4,17.152h-0.32
	c-1.504-5.832-2.496-11.408-4-17.152l-5.664-23.648h-15.152l15.984,54.112L204.168,127.12L204.168,127.12z"/>
<rect x="32" y="112" width="16" height="16"/>
<path d="M333.656,2.344C332.16,0.84,330.12,0,328,0h-8H120C97.944,0,80,17.944,80,40H40C17.944,40,0,57.944,0,80v40
	c0,22.056,17.944,40,40,40h40v184c0,22.056,17.944,40,40,40h24c4.416,0,8-3.584,8-8s-3.584-8-8-8h-24c-13.232,0-24-10.768-24-24V160
	h152c22.056,0,40-17.944,40-40V80c0-22.056-17.944-40-40-40H96c0-13.232,10.768-24,24-24h192v48c0,22.056,17.944,40,40,40h48v240
	c0,13.232-10.768,24-24,24h-24c-4.416,0-8,3.584-8,8s3.584,8,8,8h24c22.056,0,40-17.944,40-40V96v-8c0-2.12-0.84-4.16-2.344-5.656
	L333.656,2.344z M248,56c13.232,0,24,10.768,24,24v40c0,13.232-10.768,24-24,24H40c-13.232,0-24-10.768-24-24V80
	c0-13.232,10.768-24,24-24H248z M352,88c-13.232,0-24-10.768-24-24V19.312L396.688,88H352z"/>
<path d="M296,416c22.056,0,40-17.944,40-40v-80c0-22.056-17.944-40-40-40h-96c-22.056,0-40,17.944-40,40v80
	c0,22.056,17.944,40,40,40H296z M176,376v-80c0-13.232,10.768-24,24-24h96c13.232,0,24,10.768,24,24v80c0,13.232-10.768,24-24,24
	h-96C186.768,400,176,389.232,176,376z"/>
<polygon points="240,325.416 264,315.816 264,352 256,352 256,368 280,368 280,292.184 224,314.584 224,360 216,360 216,376 
	240,376 "/>
<g>
</g>
<g>
</g>
<g>
</g>
<g>
</g>
<g>
</g>
<g>
</g>
<g>
</g>
<g>
</g>
<g>
</g>
<g>
</g>
<g>
</g>
<g>
</g>
<g>
</g>
<g>
</g>
<g>
</g>
</svg>
